<svg width="71" height="61" viewBox="0 0 71 61" fill="none" xmlns="http://www.w3.org/2000/svg">
<path d="M37.0711 15.6022C36.6839 15.4867 36.4633 15.0795 36.5788 14.6922C37.9242 10.1712 42.1143 6.85168 47.1001 6.85168C47.5041 6.85168 47.8318 7.17939 47.8318 7.58342C47.8318 7.98744 47.5041 8.31516 47.1001 8.31516C42.9214 8.31516 39.1717 11.1088 37.9812 15.1093C37.8667 15.496 37.46 15.7182 37.0711 15.6022Z" fill="currentColor"/>
<path d="M52.9534 43.9384L57.3434 43.9384C64.4785 43.9384 70.2829 38.1346 70.2829 30.999C70.2829 24.2774 65.1333 18.7381 58.5713 18.118C58.7424 11.7257 53.5764 6.35244 47.0992 6.35244C45.0984 6.35244 43.1706 6.86116 41.4547 7.83489C35.676 -1.25741 22.6397 -2.05433 15.7879 6.32793L15.7879 6.32796C13.0688 9.65492 11.8325 13.8815 12.3017 18.1096C5.69726 18.6876 0.5 24.2475 0.5 30.9995C0.5 38.1346 6.30436 43.939 13.4395 43.939H17.8298C18.51 43.939 19.0615 43.3874 19.0615 42.7072C19.0615 42.0271 18.51 41.4755 17.8298 41.4755H13.4395C7.66374 41.4755 2.96353 36.7753 2.96353 30.9996C2.96353 25.2238 7.66374 20.5236 13.4395 20.5236H13.7327C14.5098 20.5236 15.0946 19.8111 14.9398 19.0468L14.9398 19.0466C14.1348 15.0809 15.1391 11.0142 17.6953 7.88698C23.7634 0.464048 35.467 1.6105 39.9478 10.1429L39.9479 10.1431C40.2989 10.8108 41.161 11.0086 41.7679 10.5627L41.7681 10.5626C43.3233 9.41904 45.1653 8.81531 47.0995 8.81531C52.0683 8.81531 56.112 12.8591 56.112 17.8279C56.112 18.2494 56.0809 18.6835 56.0188 19.1163C55.9679 19.4705 56.0737 19.8284 56.3073 20.098C56.5414 20.3682 56.8812 20.523 57.2382 20.523H57.3438C63.1195 20.523 67.8197 25.2232 67.8197 30.999C67.8197 36.7747 63.1195 41.4749 57.3438 41.4749H52.9534C52.2732 41.4749 51.7217 42.0265 51.7217 42.7067C51.7217 43.3869 52.2733 43.9384 52.9534 43.9384Z" fill="currentColor" stroke="#F8F8F8"/>
<path d="M16.85 42.2935C16.85 52.4634 25.1237 60.737 35.2935 60.737C45.4634 60.737 53.737 52.4633 53.737 42.2935C53.737 32.1235 45.4634 23.85 35.2935 23.85C25.1235 23.85 16.85 32.1237 16.85 42.2935ZM18.6138 42.2935C18.6138 33.0966 26.0964 25.6138 35.2935 25.6138C44.4904 25.6138 51.9732 33.0964 51.9732 42.2935C51.9732 51.4904 44.4904 58.9732 35.2935 58.9732C26.0966 58.9732 18.6138 51.4905 18.6138 42.2935Z" fill="currentColor" stroke="#F8F8F8" stroke-width="0.3"/>
<path d="M35.6279 50.1935C35.3321 50.1935 35.0922 49.9536 35.0922 49.6578V35.7292C35.0922 35.4334 35.3321 35.1935 35.6279 35.1935C35.9237 35.1935 36.1636 35.4334 36.1636 35.7292V49.6578C36.1636 49.9539 35.9237 50.1935 35.6279 50.1935Z" fill="currentColor"/>
<path d="M39.9135 40.5519C39.7765 40.5519 39.6392 40.4994 39.5347 40.395L35.6279 36.4881L31.721 40.395C31.5121 40.6043 31.1727 40.6043 30.9634 40.395C30.7541 40.1857 30.7541 39.8466 30.9634 39.6373L35.249 35.3517C35.4579 35.1424 35.7974 35.1424 36.0067 35.3517L40.2923 39.6373C40.5016 39.8466 40.5016 40.1857 40.2923 40.395C40.1878 40.4998 40.0505 40.5519 39.9135 40.5519H39.9135Z" fill="currentColor"/>
</svg>
